<?xml version="1.0" encoding="utf-8"?>
<!-- Generator: Adobe Illustrator 19.2.0, SVG Export Plug-In . SVG Version: 6.00 Build 0)  -->
<svg version="1.1" id="Ebene_1" xmlns="http://www.w3.org/2000/svg" xmlns:xlink="http://www.w3.org/1999/xlink" x="0px" y="0px"
	 viewBox="0 0 38 43" style="enable-background:new 0 0 38 43;" xml:space="preserve">
<style type="text/css">
	.st0{fill:#FAE500;}
	.st1{fill:#4FB5E0;}
	.st2{fill:#F05752;}
	.st3{fill:#0582B5;}
	.st4{fill:#CC4738;}
</style>
<g>
	<g>
		<path class="st0" d="M13.2,29.8c-2.2-2.1-3.5-5-3.5-8.3c0-3.3,1.3-6.2,3.4-8.3c1.8-1.8,1.8-4.7,0-6.6c-1.8-1.8-4.7-1.8-6.5,0
			c-3.6,3.8-6,9.1-6,14.8s2.3,11,6.1,14.8c1.8,1.8,4.7,1.8,6.5,0C14.9,34.5,14.9,31.6,13.2,29.8"/>
	</g>
	<g>
		<path class="st1" d="M13.2,13.2c2.1-2.2,4.9-3.5,8.2-3.5s6.1,1.3,8.2,3.4c1.8,1.8,4.7,1.8,6.5,0c1.8-1.8,1.8-4.7,0-6.6
			c-3.8-3.7-8.9-6-14.6-6c-5.7,0-10.9,2.4-14.6,6.2c-1.8,1.8-1.8,4.7,0,6.6C8.5,14.9,11.4,14.9,13.2,13.2"/>
	</g>
	<g>
		<path class="st2" d="M29.5,29.8c-2.1,2.2-4.9,3.5-8.2,3.5c-3.2,0-6.1-1.3-8.2-3.4c-1.8-1.8-4.7-1.8-6.5,0c-1.8,1.8-1.8,4.7,0,6.6
			c3.8,3.7,8.9,6,14.6,6c5.7,0,10.9-2.4,14.6-6.2c1.8-1.8,1.8-4.7,0-6.6C34.2,28.1,31.3,28.1,29.5,29.8"/>
	</g>
	<g>
		<path class="st3" d="M10,5.4c2.5,0,4.5,2.1,4.5,4.6s-2,4.6-4.5,4.6S5.4,12.5,5.4,10S7.5,5.4,10,5.4"/>
	</g>
	<g>
		<path class="st4" d="M10,28.5c2.5,0,4.5,2.1,4.5,4.6s-2,4.6-4.5,4.6s-4.5-2.1-4.5-4.6S7.5,28.5,10,28.5"/>
	</g>
</g>
</svg>
